<mxfile host="app.diagrams.net" modified="2024-04-12T09:01:01.346Z" agent="Mozilla/5.0 (Windows NT 10.0; Win64; x64) AppleWebKit/537.36 (KHTML, like Gecko) Chrome/123.0.0.0 Safari/537.36" version="24.2.3" etag="ILUw9d3a2QeGlOphVIJk" type="github">
  <diagram name="Page-1" id="u-RcMR10XN4kYOu92wQx">
    <mxGraphModel>
      <root>
        <mxCell id="0" />
        <mxCell id="1" parent="0" />
      </root>
    </mxGraphModel>
  </diagram>
</mxfile>
